Patient4_TMGait_0pt4_01_left_34_EMG.mot
version=1
nRows=23
nColumns=33
inDegrees=no
endheader
time	1LAddLong	2LGlutMax	3LGlutMed	4LIliopsoas	5LSemiMemb	6LBicFemLong	7LRecFem	8LVastMed	9LVastLat	10LGasMed	11LTibAnt	12lTibPost	13LPeroneusLong	14LSol	15LExtDigLong	16LFlexDigLong	17RAddLong	18RGlutMax	19RGlutMed	20RIliopsoas	21RSemiMemb	22RBicFemLong	23RRecFem	24RVastMed	25RVastLat	26RGasMed	27RTibAnt	28RTibPost	29RPeroneusLong	30RSol	31RExtDigLong	32RFlexDigLong
43.533	0.014343	0.073547	-0.017242	0.008698	0.039673	-0.022278	0.004883	0.000458	0.029449	-0.032196	0.037689	-0.001526	0.021057	-0.042725	-0.096893	0.002136	0.012665	-0.10956	-0.36957	0.11444	0.17425	0.072174	0.019226	0.002441	-0.009308	0.053101	0.037079	-0.060272	-0.91232	-0.88394	0.002136	-0.007629
43.534	0.015564	0.1152	0.028534	0.008392	0.084534	-0.02655	0.007629	0.002441	0.031433	-0.028229	-0.019836	0.009613	0.038452	-0.013733	-0.081024	-0.010986	0.021515	-0.090027	-0.32257	0.00412	0.56473	0.080261	0.093231	0.019379	-0.007782	0.032501	0.039215	-0.11017	-0.33081	-0.39032	-0.000305	-0.015869
43.535	0.010529	0.06424	0.022125	0.008698	0.027008	0.003204	0.012512	0.001831	0.018005	-0.017395	-0.003052	0.002594	0.011597	-0.010071	-0.056	-0.004578	0.008698	-0.12985	0.2063	-0.10223	0.33142	0.10971	-0.057983	0.02182	-0.010986	-0.010834	0.056305	-0.022583	0.071411	-0.037994	0.004272	-0.014954
43.536	0.017853	0.060883	0.043945	0.023041	0.006256	0.018616	0.002899	0.003662	0.0177	-0.042877	0.00473	-0.001526	0.033112	0.02533	-0.063782	-0.001984	-0.030975	-0.027924	0.58151	-0.16403	0.22034	0.16647	-0.14008	0.018158	0.002441	0.018463	0.037537	-0.11124	0.63065	-0.35217	-0.000458	-0.021515
43.537	0.006104	0.094604	-0.006714	-0.010071	0.001984	0.015564	-0.009766	0.005951	0.015259	-0.058594	0.033722	-0.000153	0.078278	0.019684	0.062256	0.002289	-0.043335	-0.002747	0.4773	0.067139	0.028839	0.15274	-0.021057	0.022736	0.007324	0.024872	0.016632	-0.26962	0.36331	-0.16159	-0.001831	-0.024719
43.538	0.00412	0.076904	-0.036774	-0.015259	0.001984	0.010071	0.011902	0.009918	0.012207	-0.04776	-0.033112	0.005341	0.046997	0.019379	0.43289	-0.009003	-0.023499	0.040131	0.30716	0.078583	-0.074005	0.070343	0.054169	-0.011902	-0.0177	0.023193	-0.0177	-0.18768	0.042877	0.4303	-0.001526	-0.016174
43.539	0.015411	0.066986	-0.027618	0.018005	0.022125	0.004883	-0.011139	0.006409	0.01358	-0.02243	0.11017	0.009308	-0.02594	-0.020447	0.006256	0.007477	-0.018921	0.12116	0.18036	0.063324	0.089111	0.000305	-0.042725	-0.017548	0.011444	-0.026093	-0.048523	0.22614	0.20905	0.36224	0.000305	-0.011139
43.54	-0.003357	0.060577	-0.050507	0.009766	0.016174	0.008698	-0.014343	0.006104	0.006714	-0.016937	0.007019	0.001678	-0.0354	-0.050354	0.1416	0.007172	-0.009613	0.15274	0.055695	0.05661	0.069122	0.04425	-0.015411	0.0383	-0.024109	-0.14954	-0.044403	0.39307	-0.00473	0.27664	-0.005341	-0.006714
43.541	-0.004578	0.046082	-0.001221	0.011139	0.013885	-0.004883	-0.017242	0.001831	0.000153	-0.032196	-0.015106	0.005951	-0.013428	-0.068359	-0.43716	0.014038	0.002441	0.058899	-0.14084	0.043793	0.029449	0.048676	0.076752	0.10956	0.010376	-0.089111	-0.06134	-0.036774	0.033569	-0.27252	0.00061	-0.005646
43.542	0.003357	0.05722	-0.022583	0.003052	0.003967	-0.00473	-0.006409	0.00412	0.001678	-0.039673	-0.072784	0.002594	0.009155	-0.06012	-0.30579	0.005341	0.006409	0.076447	0.17716	0.040588	-0.010223	0.012054	0.22095	0.085754	-0.012054	-0.03952	-0.027771	-0.48355	-0.18646	-0.54367	-0.00061	-0.010376
43.543	0.00824	0.046692	-0.05188	0.003204	-0.001831	0.004425	-0.00885	0.005188	0.00885	-0.039215	-0.049591	0.002136	0.016937	-0.052185	-0.20126	-0.013733	0.014343	0.066986	0.33844	0.012665	0.025635	-0.007324	0.31204	-0.016937	-0.0354	-0.048523	0.017242	0.066528	-0.34424	0.31036	-0.000916	-0.012207
43.544	0.00885	0.033722	-0.086212	0.008698	0.010376	0.051575	-0.00351	0.000763	0.014954	-0.027924	-0.037384	0.002594	0.010376	-0.073395	0.36468	0.000153	0.023956	0.11978	0.51956	-0.012665	0.047913	0.003662	0.41092	-0.045319	-0.024719	-0.033112	0.027161	0.43579	-0.19409	0.94589	0	-0.012512
43.545	0.011444	0.015717	-0.1178	0.003967	0.028992	0.077667	-0.023956	0.005035	0.007935	-0.018463	-0.02533	-0.00412	-0.012512	-0.10803	0.33966	-0.00473	0.010223	0.10208	0.06073	0.033417	0.044098	0.040436	0.34607	-0.070953	-0.058594	-0.02182	0.019836	0.4361	0.23407	1.1147	0.000916	-0.00946
43.546	0.005951	0.027618	-0.12253	0.017853	-0.018158	0.072327	-0.008392	0.007019	0.015259	-0.047302	-0.11795	0.003815	0.002594	-0.017242	-0.52185	-0.00473	0.002441	0.062866	-0.037384	0.095978	-0.11276	0.065308	0.13428	-0.1413	-0.1062	-0.002747	0.037384	0.11612	-0.088348	0.61325	-0.00061	-0.012512
43.547	0.008545	0.015411	0.020905	0.009155	-0.03418	0.020447	-0.028992	0.00412	-0.011749	-0.082245	-0.1976	0.00473	0.067291	0.024872	-0.32791	-0.001373	0.001526	0.049744	0.19959	-0.010071	0.022736	0.064545	-0.096741	-0.18433	-0.11353	-0.014954	0.04776	-0.000153	0.002136	0.23239	-0.004883	-0.013428
43.548	0.008545	0.025787	0.067139	0.001831	-0.022583	-0.056	-0.015564	0.002441	-0.01297	-0.076599	0.013428	-0.005493	0.005646	-0.06073	-0.17883	-0.011444	0.008392	0.063782	-0.084381	0.011902	-0.022125	0.055389	-0.011292	-0.022278	-0.1181	-0.015106	0.007172	-0.11688	0.79437	-0.1741	-0.002136	-0.010223
43.549	0.014954	0.001373	0.061951	-0.00946	0.043488	-0.042725	0.001373	0.003357	-0.016174	-0.011444	0.058899	-0.00351	-0.049896	-0.037689	0.017395	-0.006104	0.003967	0.054626	-0.39841	0.011292	-0.014954	0.040131	0.002594	-0.005493	-0.12131	-0.002747	0.035858	-0.16174	-0.18326	-0.23636	-0.002594	-0.005798
43.55	0.014648	0.018158	0.018921	0.012665	0.033112	-0.002747	-0.00061	0.000763	-0.019989	-0.033264	-0.003967	-0.001984	-0.042114	-0.026703	0.061493	-0.006256	-0.006866	0.042725	-0.28503	0.004425	0.02655	0.050507	-0.33066	-0.03006	-0.11841	-0.001373	0.030823	0.058594	0.016174	-0.020599	-0.001678	-0.014343
43.551	0.014343	-0.002136	-0.003662	0.020599	0.003662	0.032043	-0.011292	0.001068	-0.014496	-0.031738	-0.019989	-0.003052	-0.02243	-0.014954	0.072784	-0.011902	0.000763	0.061035	-0.5339	0.065613	0.018158	0.033417	-0.38773	0.019073	0.035706	-0.009613	0.001373	0.014801	0.14297	0.06073	0.001068	-0.013428
43.552	0.008698	-0.006256	-0.009308	0.009308	-0.018158	0.049438	0.002136	0.004272	-0.011444	-0.021973	-0.000763	-0.000305	-0.0177	-0.061951	0.092773	0.002441	0.010071	0.066528	-0.40665	0.010071	0.014496	0.00946	-0.31616	0.014496	0.14297	-0.001984	-0.015259	-0.040894	-0.66879	0.0737	-0.001526	-0.011749
43.553	0.011139	-0.016785	-0.023804	0.018005	-0.00351	0.022278	0.002136	0.001678	-0.008545	-0.023804	-0.000153	-0.002289	-0.016785	-0.10727	0.12482	-0.009155	0.010529	0.12344	-0.063324	0.034943	0.022888	0.023041	-0.089569	0.018158	0.027161	-0.007019	-0.007935	-0.050659	-0.86121	0.13977	0.003815	-0.018463
43.554	0.01297	-0.010529	-0.022888	0.013123	0.01297	-0.078888	-0.015717	0.001221	-0.003052	-0.012817	-0.007629	-0.004425	-0.02594	-0.045624	0.28763	-0.003052	0.017548	0.20996	0.94559	-0.062714	0.018158	0.03006	-0.051575	0.029297	0.003052	-0.001831	-0.029297	-0.058441	0.78812	0.003662	-0.004883	-0.011292
43.555	0.010071	-0.042267	-0.000305	0.010986	0.05722	-0.056458	0.006409	0.006104	-0.010071	-0.01358	-0.02121	-0.003967	-0.028687	-0.039063	0.058899	-0.003967	0.021973	0.14404	0.66467	-0.006714	0.022583	0.044403	-0.023956	-0.031738	-0.036011	0.003052	-0.018921	-0.058899	0.69168	-0.08606	-0.010529	-0.005493
